# xmcd
# Track frame offsets:
# 150
# 12866
# 28182
# 42997
# 63300
# 83416
#
# Disc length: 1310 seconds
# Revision: 0
# Processed by: cddbd v1.5.1PL0 Copyright (c) Steve Scherf et al.
# Submitted via: VisiTrax 2.9.10.228 - For more info visit www.synapsa.com
#
DISCID=3e051c06
DTITLE=O'Brien.Rowley. - Celebrating 60.
DYEAR=2005
DGENRE=
TTITLE0=Gun Picker Rus.
TTITLE1=Who's Really Country.?
TTITLE2=Celebrating 60.
TTITLE3=Ross River Blues.
TTITLE4=It's Not The Dili Hilton.
TTITLE5=A Square peg.
EXTD=
EXTT0=
EXTT1=
EXTT2=
EXTT3=
EXTT4=
EXTT5=
PLAYORDER=
